<svg xmlns="http://www.w3.org/2000/svg" xmlns:xlink="http://www.w3.org/1999/xlink" contentStyleType="text/css" data-diagram-type="CLASS" height="618px" preserveAspectRatio="none" style="width:718px;height:618px;background:#FFFFFF;" version="1.1" viewBox="0 0 718 618" width="718px" zoomAndPan="magnify">
  <defs>
    <style type="text/css">a:hover { text-decoration: underline; }</style>
  </defs>
  <g>
    <g class="entity" data-entity="C_0017634379553184455459" data-source-line="1" data-uid="ent0002" id="entity_C_0017634379553184455459">
      <rect fill="#F1F1F1" height="48" rx="2.5" ry="2.5" style="stroke:#181818;stroke-width:0.5;" width="198.8121" x="273" y="454"/>
      <ellipse cx="288" cy="470" fill="#ADD1B2" rx="11" ry="11" style="stroke:#181818;stroke-width:1;"/>
      <path d="M290.9688,475.6406 Q290.3906,475.9375 289.75,476.0781 Q289.1094,476.2344 288.4063,476.2344 Q285.9063,476.2344 284.5781,474.5938 Q283.2656,472.9375 283.2656,469.8125 Q283.2656,466.6875 284.5781,465.0313 Q285.9063,463.375 288.4063,463.375 Q289.1094,463.375 289.75,463.5313 Q290.4063,463.6875 290.9688,463.9844 L290.9688,466.7031 Q290.3438,466.125 289.75,465.8594 Q289.1563,465.5781 288.5313,465.5781 Q287.1875,465.5781 286.5,466.6563 Q285.8125,467.7188 285.8125,469.8125 Q285.8125,471.9063 286.5,472.9844 Q287.1875,474.0469 288.5313,474.0469 Q289.1563,474.0469 289.75,473.7813 Q290.3438,473.5 290.9688,472.9219 L290.9688,475.6406 Z " fill="#000000"/>
      <text fill="#000000" font-family="sans-serif" font-size="14" lengthAdjust="spacing" textLength="96.3196" x="302" y="475.432">signal_handler</text>
      <rect fill="#FFFFFF" height="18.3441" style="stroke:#181818;stroke-width:1;stroke-dasharray:2.0,2.0;" width="68.4925" x="406.3196" y="451"/>
      <text fill="#000000" font-family="sans-serif" font-size="12" font-style="italic" lengthAdjust="spacing" textLength="66.4925" x="407.3196" y="464.8281">Ret(Args...),A</text>
      <line style="stroke:#181818;stroke-width:0.5;" x1="274" x2="470.8121" y1="486" y2="486"/>
      <line style="stroke:#181818;stroke-width:0.5;" x1="274" x2="470.8121" y1="494" y2="494"/>
    </g>
    <g class="entity" data-entity="C_0001573656084733231303" data-source-line="5" data-uid="ent0003" id="entity_C_0001573656084733231303">
      <rect fill="#F1F1F1" height="113.2038" rx="2.5" ry="2.5" style="stroke:#181818;stroke-width:0.5;" width="229.0552" x="7" y="262"/>
      <ellipse cx="25.6181" cy="278" fill="#ADD1B2" rx="11" ry="11" style="stroke:#181818;stroke-width:1;"/>
      <path d="M28.5869,283.6406 Q28.0087,283.9375 27.3681,284.0781 Q26.7275,284.2344 26.0244,284.2344 Q23.5244,284.2344 22.1962,282.5938 Q20.8837,280.9375 20.8837,277.8125 Q20.8837,274.6875 22.1962,273.0313 Q23.5244,271.375 26.0244,271.375 Q26.7275,271.375 27.3681,271.5313 Q28.0244,271.6875 28.5869,271.9844 L28.5869,274.7031 Q27.9619,274.125 27.3681,273.8594 Q26.7744,273.5781 26.1494,273.5781 Q24.8056,273.5781 24.1181,274.6563 Q23.4306,275.7188 23.4306,277.8125 Q23.4306,279.9063 24.1181,280.9844 Q24.8056,282.0469 26.1494,282.0469 Q26.7744,282.0469 27.3681,281.7813 Q27.9619,281.5 28.5869,280.9219 L28.5869,283.6406 Z " fill="#000000"/>
      <text fill="#000000" font-family="sans-serif" font-size="14" lengthAdjust="spacing" textLength="26.4459" x="40.4221" y="283.432">sink</text>
      <rect fill="#FFFFFF" height="18.3441" style="stroke:#181818;stroke-width:1;stroke-dasharray:2.0,2.0;" width="160.5691" x="78.4861" y="259"/>
      <text fill="#000000" font-family="sans-serif" font-size="12" font-style="italic" lengthAdjust="spacing" textLength="158.5691" x="79.4861" y="272.8281">signal_handler&lt;Ret(Args...),A&gt;</text>
      <line style="stroke:#181818;stroke-width:0.5;" x1="8" x2="235.0552" y1="294" y2="294"/>
      <ellipse cx="18" cy="309.034" fill="#84BE84" rx="3" ry="3" style="stroke:#038048;stroke-width:1;"/>
      <text fill="#000000" font-family="sans-serif" font-size="14" lengthAdjust="spacing" textLength="156.8834" x="27" y="312.9659">sink(signal_t &amp; sh) : void</text>
      <line style="stroke:#181818;stroke-width:1;stroke-dasharray:1.0,2.0;" x1="8" x2="235.0552" y1="321.0679" y2="321.0679"/>
      <ellipse cx="18" cy="336.1019" fill="#84BE84" rx="3" ry="3" style="stroke:#038048;stroke-width:1;"/>
      <text fill="#000000" font-family="sans-serif" font-size="14" lengthAdjust="spacing" textLength="203.0552" x="27" y="340.0339">get_signal&lt;CastTo&gt;() : CastTo *</text>
      <line style="stroke:#181818;stroke-width:0.5;" x1="8" x2="235.0552" y1="348.1358" y2="348.1358"/>
      <rect fill="none" height="6" style="stroke:#C82930;stroke-width:1;" width="6" x="15" y="360.1698"/>
      <text fill="#000000" font-family="sans-serif" font-size="14" lengthAdjust="spacing" textLength="111.7476" x="27" y="367.1018">signal : signal_t *</text>
    </g>
    <g class="entity" data-entity="C_0007415087118556040696" data-source-line="13" data-uid="ent0004" id="entity_C_0007415087118556040696">
      <rect fill="#F1F1F1" height="48" rx="2.5" ry="2.5" style="stroke:#181818;stroke-width:0.5;" width="198.8121" x="509" y="294.5"/>
      <ellipse cx="524" cy="310.5" fill="#ADD1B2" rx="11" ry="11" style="stroke:#181818;stroke-width:1;"/>
      <path d="M526.9688,316.1406 Q526.3906,316.4375 525.75,316.5781 Q525.1094,316.7344 524.4063,316.7344 Q521.9063,316.7344 520.5781,315.0938 Q519.2656,313.4375 519.2656,310.3125 Q519.2656,307.1875 520.5781,305.5313 Q521.9063,303.875 524.4063,303.875 Q525.1094,303.875 525.75,304.0313 Q526.4063,304.1875 526.9688,304.4844 L526.9688,307.2031 Q526.3438,306.625 525.75,306.3594 Q525.1563,306.0781 524.5313,306.0781 Q523.1875,306.0781 522.5,307.1563 Q521.8125,308.2188 521.8125,310.3125 Q521.8125,312.4063 522.5,313.4844 Q523.1875,314.5469 524.5313,314.5469 Q525.1563,314.5469 525.75,314.2813 Q526.3438,314 526.9688,313.4219 L526.9688,316.1406 Z " fill="#000000"/>
      <text fill="#000000" font-family="sans-serif" font-size="14" lengthAdjust="spacing" textLength="96.3196" x="538" y="315.932">signal_handler</text>
      <rect fill="#FFFFFF" height="18.3441" style="stroke:#181818;stroke-width:1;stroke-dasharray:2.0,2.0;" width="68.4925" x="642.3196" y="291.5"/>
      <text fill="#000000" font-family="sans-serif" font-size="12" font-style="italic" lengthAdjust="spacing" textLength="66.4925" x="643.3196" y="305.3281">Ret(Args...),A</text>
      <line style="stroke:#181818;stroke-width:0.5;" x1="510" x2="706.8121" y1="326.5" y2="326.5"/>
      <line style="stroke:#181818;stroke-width:0.5;" x1="510" x2="706.8121" y1="334.5" y2="334.5"/>
    </g>
    <g class="entity" data-entity="C_0002968150287070219592" data-source-line="17" data-uid="ent0005" id="entity_C_0002968150287070219592">
      <rect fill="#F1F1F1" height="48" rx="2.5" ry="2.5" style="stroke:#181818;stroke-width:0.5;" width="202.3401" x="271.5" y="294.5"/>
      <ellipse cx="286.5" cy="310.5" fill="#ADD1B2" rx="11" ry="11" style="stroke:#181818;stroke-width:1;"/>
      <path d="M289.4688,316.1406 Q288.8906,316.4375 288.25,316.5781 Q287.6094,316.7344 286.9063,316.7344 Q284.4063,316.7344 283.0781,315.0938 Q281.7656,313.4375 281.7656,310.3125 Q281.7656,307.1875 283.0781,305.5313 Q284.4063,303.875 286.9063,303.875 Q287.6094,303.875 288.25,304.0313 Q288.9063,304.1875 289.4688,304.4844 L289.4688,307.2031 Q288.8438,306.625 288.25,306.3594 Q287.6563,306.0781 287.0313,306.0781 Q285.6875,306.0781 285,307.1563 Q284.3125,308.2188 284.3125,310.3125 Q284.3125,312.4063 285,313.4844 Q285.6875,314.5469 287.0313,314.5469 Q287.6563,314.5469 288.25,314.2813 Q288.8438,314 289.4688,313.4219 L289.4688,316.1406 Z " fill="#000000"/>
      <text fill="#000000" font-family="sans-serif" font-size="14" lengthAdjust="spacing" textLength="96.3196" x="300.5" y="315.932">signal_handler</text>
      <rect fill="#FFFFFF" height="18.3441" style="stroke:#181818;stroke-width:1;stroke-dasharray:2.0,2.0;" width="72.0205" x="404.8196" y="291.5"/>
      <text fill="#000000" font-family="sans-serif" font-size="12" font-style="italic" lengthAdjust="spacing" textLength="70.0205" x="405.8196" y="305.3281">void(int),bool</text>
      <line style="stroke:#181818;stroke-width:0.5;" x1="272.5" x2="472.8401" y1="326.5" y2="326.5"/>
      <line style="stroke:#181818;stroke-width:0.5;" x1="272.5" x2="472.8401" y1="334.5" y2="334.5"/>
    </g>
    <g class="entity" data-entity="C_0008784999040459731640" data-source-line="21" data-uid="ent0006" id="entity_C_0008784999040459731640">
      <rect fill="#F1F1F1" height="48" rx="2.5" ry="2.5" style="stroke:#181818;stroke-width:0.5;" width="224.543" x="134" y="153"/>
      <ellipse cx="149" cy="169" fill="#ADD1B2" rx="11" ry="11" style="stroke:#181818;stroke-width:1;"/>
      <path d="M151.9688,174.6406 Q151.3906,174.9375 150.75,175.0781 Q150.1094,175.2344 149.4063,175.2344 Q146.9063,175.2344 145.5781,173.5938 Q144.2656,171.9375 144.2656,168.8125 Q144.2656,165.6875 145.5781,164.0313 Q146.9063,162.375 149.4063,162.375 Q150.1094,162.375 150.75,162.5313 Q151.4063,162.6875 151.9688,162.9844 L151.9688,165.7031 Q151.3438,165.125 150.75,164.8594 Q150.1563,164.5781 149.5313,164.5781 Q148.1875,164.5781 147.5,165.6563 Q146.8125,166.7188 146.8125,168.8125 Q146.8125,170.9063 147.5,171.9844 Q148.1875,173.0469 149.5313,173.0469 Q150.1563,173.0469 150.75,172.7813 Q151.3438,172.5 151.9688,171.9219 L151.9688,174.6406 Z " fill="#000000"/>
      <text fill="#000000" font-family="sans-serif" font-size="14" lengthAdjust="spacing" textLength="26.4459" x="163" y="174.432">sink</text>
      <rect fill="#FFFFFF" height="18.3441" style="stroke:#181818;stroke-width:1;stroke-dasharray:2.0,2.0;" width="164.0971" x="197.4459" y="150"/>
      <text fill="#000000" font-family="sans-serif" font-size="12" font-style="italic" lengthAdjust="spacing" textLength="162.0971" x="198.4459" y="163.8281">signal_handler&lt;void(int),bool&gt;</text>
      <line style="stroke:#181818;stroke-width:0.5;" x1="135" x2="357.543" y1="185" y2="185"/>
      <line style="stroke:#181818;stroke-width:0.5;" x1="135" x2="357.543" y1="193" y2="193"/>
    </g>
    <g class="entity" data-entity="C_0005051800320688517586" data-source-line="25" data-uid="ent0007" id="entity_C_0005051800320688517586">
      <rect fill="#F1F1F1" height="67.0679" rx="2.5" ry="2.5" style="stroke:#181818;stroke-width:0.5;" width="316.3588" x="88.5" y="7"/>
      <ellipse cx="238.0754" cy="23" fill="#ADD1B2" rx="11" ry="11" style="stroke:#181818;stroke-width:1;"/>
      <path d="M241.0442,28.6406 Q240.4661,28.9375 239.8254,29.0781 Q239.1848,29.2344 238.4817,29.2344 Q235.9817,29.2344 234.6536,27.5938 Q233.3411,25.9375 233.3411,22.8125 Q233.3411,19.6875 234.6536,18.0313 Q235.9817,16.375 238.4817,16.375 Q239.1848,16.375 239.8254,16.5313 Q240.4817,16.6875 241.0442,16.9844 L241.0442,19.7031 Q240.4192,19.125 239.8254,18.8594 Q239.2317,18.5781 238.6067,18.5781 Q237.2629,18.5781 236.5754,19.6563 Q235.8879,20.7188 235.8879,22.8125 Q235.8879,24.9063 236.5754,25.9844 Q237.2629,27.0469 238.6067,27.0469 Q239.2317,27.0469 239.8254,26.7813 Q240.4192,26.5 241.0442,25.9219 L241.0442,28.6406 Z " fill="#000000"/>
      <text fill="#000000" font-family="sans-serif" font-size="14" lengthAdjust="spacing" textLength="8.708" x="258.5754" y="28.432">R</text>
      <line style="stroke:#181818;stroke-width:0.5;" x1="89.5" x2="403.8588" y1="39" y2="39"/>
      <line style="stroke:#181818;stroke-width:0.5;" x1="89.5" x2="403.8588" y1="47" y2="47"/>
      <ellipse cx="99.5" cy="62.034" fill="#84BE84" rx="3" ry="3" style="stroke:#038048;stroke-width:1;"/>
      <text fill="#000000" font-family="sans-serif" font-size="14" lengthAdjust="spacing" textLength="290.3588" x="108.5" y="65.9659">sink1 : sink&lt;signal_handler&lt;void (int),bool&gt;&gt;</text>
    </g>
    <g class="entity" data-entity="C_0005659110981430392188" data-source-line="30" data-uid="ent0008" id="entity_C_0005659110981430392188">
      <rect fill="#F1F1F1" height="48" rx="2.5" ry="2.5" style="stroke:#181818;stroke-width:0.5;" width="148.1477" x="298.5" y="563"/>
      <ellipse cx="313.5" cy="579" fill="#ADD1B2" rx="11" ry="11" style="stroke:#181818;stroke-width:1;"/>
      <path d="M316.4688,584.6406 Q315.8906,584.9375 315.25,585.0781 Q314.6094,585.2344 313.9063,585.2344 Q311.4063,585.2344 310.0781,583.5938 Q308.7656,581.9375 308.7656,578.8125 Q308.7656,575.6875 310.0781,574.0313 Q311.4063,572.375 313.9063,572.375 Q314.6094,572.375 315.25,572.5313 Q315.9063,572.6875 316.4688,572.9844 L316.4688,575.7031 Q315.8438,575.125 315.25,574.8594 Q314.6563,574.5781 314.0313,574.5781 Q312.6875,574.5781 312,575.6563 Q311.3125,576.7188 311.3125,578.8125 Q311.3125,580.9063 312,581.9844 Q312.6875,583.0469 314.0313,583.0469 Q314.6563,583.0469 315.25,582.7813 Q315.8438,582.5 316.4688,581.9219 L316.4688,584.6406 Z " fill="#000000"/>
      <text fill="#000000" font-family="sans-serif" font-size="14" lengthAdjust="spacing" textLength="96.3196" x="327.5" y="584.432">signal_handler</text>
      <rect fill="#FFFFFF" height="18.3441" style="stroke:#181818;stroke-width:1;stroke-dasharray:2.0,2.0;" width="17.8281" x="431.8196" y="560"/>
      <text fill="#000000" font-family="sans-serif" font-size="12" font-style="italic" lengthAdjust="spacing" textLength="15.8281" x="432.8196" y="573.8281">T,A</text>
      <line style="stroke:#181818;stroke-width:0.5;" x1="299.5" x2="445.6477" y1="595" y2="595"/>
      <line style="stroke:#181818;stroke-width:0.5;" x1="299.5" x2="445.6477" y1="603" y2="603"/>
    </g>
    <g class="entity" data-entity="C_0017351263553405988873" data-source-line="34" data-uid="ent0009" id="entity_C_0017351263553405988873">
      <rect fill="#F1F1F1" height="48" rx="2.5" ry="2.5" style="stroke:#181818;stroke-width:0.5;" width="68.4579" x="87.5" y="454"/>
      <ellipse cx="102.5" cy="470" fill="#ADD1B2" rx="11" ry="11" style="stroke:#181818;stroke-width:1;"/>
      <path d="M105.4688,475.6406 Q104.8906,475.9375 104.25,476.0781 Q103.6094,476.2344 102.9063,476.2344 Q100.4063,476.2344 99.0781,474.5938 Q97.7656,472.9375 97.7656,469.8125 Q97.7656,466.6875 99.0781,465.0313 Q100.4063,463.375 102.9063,463.375 Q103.6094,463.375 104.25,463.5313 Q104.9063,463.6875 105.4688,463.9844 L105.4688,466.7031 Q104.8438,466.125 104.25,465.8594 Q103.6563,465.5781 103.0313,465.5781 Q101.6875,465.5781 101,466.6563 Q100.3125,467.7188 100.3125,469.8125 Q100.3125,471.9063 101,472.9844 Q101.6875,474.0469 103.0313,474.0469 Q103.6563,474.0469 104.25,473.7813 Q104.8438,473.5 105.4688,472.9219 L105.4688,475.6406 Z " fill="#000000"/>
      <text fill="#000000" font-family="sans-serif" font-size="14" lengthAdjust="spacing" textLength="26.4459" x="116.5" y="475.432">sink</text>
      <rect fill="#FFFFFF" height="18.3441" style="stroke:#181818;stroke-width:1;stroke-dasharray:2.0,2.0;" width="8.012" x="150.9459" y="451"/>
      <text fill="#000000" font-family="sans-serif" font-size="12" font-style="italic" lengthAdjust="spacing" textLength="6.012" x="151.9459" y="464.8281">T</text>
      <line style="stroke:#181818;stroke-width:0.5;" x1="88.5" x2="154.9579" y1="486" y2="486"/>
      <line style="stroke:#181818;stroke-width:0.5;" x1="88.5" x2="154.9579" y1="494" y2="494"/>
    </g>
    <g class="link" data-entity-1="C_0017634379553184455459" data-entity-2="C_0005659110981430392188" data-source-line="38" data-uid="lnk10" id="link_C_0017634379553184455459_C_0005659110981430392188">
      <path codeLine="38" d="M372.5,502.22 C372.5,520.16 372.5,526.89 372.5,544.83" fill="none" id="C_0017634379553184455459-to-C_0005659110981430392188" style="stroke:#181818;stroke-width:1;stroke-dasharray:7.0,7.0;"/>
      <polygon fill="none" points="372.5,562.83,378.5,544.83,366.5,544.83,372.5,562.83" style="stroke:#181818;stroke-width:1;"/>
    </g>
    <g class="link" data-entity-1="C_0001573656084733231303" data-entity-2="C_0017351263553405988873" data-source-line="39" data-uid="lnk11" id="link_C_0001573656084733231303_C_0017351263553405988873">
      <path codeLine="39" d="M121.5,375.03 C121.5,402.13 121.5,415.26 121.5,435.92" fill="none" id="C_0001573656084733231303-to-C_0017351263553405988873" style="stroke:#181818;stroke-width:1;stroke-dasharray:7.0,7.0;"/>
      <polygon fill="none" points="121.5,453.92,127.5,435.92,115.5,435.92,121.5,453.92" style="stroke:#181818;stroke-width:1;"/>
    </g>
    <g class="link" data-entity-1="C_0001573656084733231303" data-entity-2="C_0017634379553184455459" data-source-line="40" data-uid="lnk12" id="link_C_0001573656084733231303_C_0017634379553184455459">
      <path codeLine="40" d="M209.99,375.03 C253.18,402.13 297.7075,430.0713 330.6375,450.7313" fill="none" id="C_0001573656084733231303-to-C_0017634379553184455459" style="stroke:#181818;stroke-width:1;"/>
      <polygon fill="#181818" points="335.72,453.92,330.222,445.7486,331.4846,451.2627,325.9704,452.5253,335.72,453.92" style="stroke:#181818;stroke-width:1;"/>
      <rect fill="none" height="6" style="stroke:#C82930;stroke-width:1;" width="6" x="287.5" y="412.353"/>
      <text fill="#000000" font-family="sans-serif" font-size="13" lengthAdjust="spacing" textLength="36.257" x="297.5" y="419.897">signal</text>
    </g>
    <g class="link" data-entity-1="C_0007415087118556040696" data-entity-2="C_0017634379553184455459" data-source-line="41" data-uid="lnk13" id="link_C_0007415087118556040696_C_0017634379553184455459">
      <path codeLine="41" d="M573.93,342.57 C529.25,372.39 466.8623,414.0284 422.1323,443.8784" fill="none" id="C_0007415087118556040696-to-C_0017634379553184455459" style="stroke:#181818;stroke-width:1;stroke-dasharray:7.0,7.0;"/>
      <polygon fill="none" points="407.16,453.87,425.4628,448.8692,418.8018,438.8877,407.16,453.87" style="stroke:#181818;stroke-width:1;"/>
    </g>
    <g class="link" data-entity-1="C_0002968150287070219592" data-entity-2="C_0017634379553184455459" data-source-line="42" data-uid="lnk14" id="link_C_0002968150287070219592_C_0017634379553184455459">
      <path codeLine="42" d="M372.5,342.74 C372.5,372.6 372.5,406.14 372.5,435.92" fill="none" id="C_0002968150287070219592-to-C_0017634379553184455459" style="stroke:#181818;stroke-width:1;stroke-dasharray:7.0,7.0;"/>
      <polygon fill="none" points="372.5,453.92,378.5,435.92,366.5,435.92,372.5,453.92" style="stroke:#181818;stroke-width:1;"/>
    </g>
    <g class="link" data-entity-1="C_0008784999040459731640" data-entity-2="C_0002968150287070219592" data-source-line="43" data-uid="lnk15" id="link_C_0008784999040459731640_C_0002968150287070219592">
      <path codeLine="43" d="M267.31,201.04 C290.65,226.88 324.278,264.1176 347.638,289.9776" fill="none" id="C_0008784999040459731640-to-C_0002968150287070219592" style="stroke:#181818;stroke-width:1;stroke-dasharray:7.0,7.0;"/>
      <polygon fill="#181818" points="351.66,294.43,348.5953,285.0701,348.3084,290.7197,342.6588,290.4327,351.66,294.43" style="stroke:#181818;stroke-width:1;"/>
    </g>
    <g class="link" data-entity-1="C_0008784999040459731640" data-entity-2="C_0001573656084733231303" data-source-line="44" data-uid="lnk16" id="link_C_0008784999040459731640_C_0001573656084733231303">
      <path codeLine="44" d="M225.86,201.04 C211.02,217.6 202.3613,227.2537 183.3313,248.4937" fill="none" id="C_0008784999040459731640-to-C_0001573656084733231303" style="stroke:#181818;stroke-width:1;stroke-dasharray:7.0,7.0;"/>
      <polygon fill="none" points="171.32,261.9,187.8001,252.4975,178.8626,244.49,171.32,261.9" style="stroke:#181818;stroke-width:1;"/>
    </g>
    <g class="link" data-entity-1="C_0005051800320688517586" data-entity-2="C_0008784999040459731640" data-source-line="45" data-uid="lnk17" id="link_C_0005051800320688517586_C_0008784999040459731640">
      <path codeLine="45" d="M246.5,86.06 C246.5,110.32 246.5,130.86 246.5,152.59" fill="none" id="C_0005051800320688517586-backto-C_0008784999040459731640" style="stroke:#181818;stroke-width:1;"/>
      <polygon fill="none" points="246.5,74.06,242.5,80.06,246.5,86.06,250.5,80.06,246.5,74.06" style="stroke:#181818;stroke-width:1;"/>
      <ellipse cx="252.5" cy="114.353" fill="none" rx="3" ry="3" style="stroke:#038048;stroke-width:1;"/>
      <text fill="#000000" font-family="sans-serif" font-size="13" lengthAdjust="spacing" textLength="31.993" x="259.5" y="118.897">sink1</text>
    </g>
  </g>
</svg>
