<svg xmlns="http://www.w3.org/2000/svg" xmlns:xlink="http://www.w3.org/1999/xlink" contentStyleType="text/css" data-diagram-type="CLASS" height="298px" preserveAspectRatio="none" style="width:1010px;height:298px;background:#FFFFFF;" version="1.1" viewBox="0 0 1010 298" width="1010px" zoomAndPan="magnify">
  <defs>
    <style type="text/css">a:hover { text-decoration: underline; }</style>
  </defs>
  <g>
    <g class="entity" data-entity="C_0000195318498192314705" data-source-line="1" data-uid="ent0002" id="entity_C_0000195318498192314705">
      <rect fill="#F1F1F1" height="48" rx="2.5" ry="2.5" style="stroke:#181818;stroke-width:0.5;" width="216.6366" x="783" y="243"/>
      <ellipse cx="798" cy="259" fill="#ADD1B2" rx="11" ry="11" style="stroke:#181818;stroke-width:1;"/>
      <path d="M800.9688,264.6406 Q800.3906,264.9375 799.75,265.0781 Q799.1094,265.2344 798.4063,265.2344 Q795.9063,265.2344 794.5781,263.5938 Q793.2656,261.9375 793.2656,258.8125 Q793.2656,255.6875 794.5781,254.0313 Q795.9063,252.375 798.4063,252.375 Q799.1094,252.375 799.75,252.5313 Q800.4063,252.6875 800.9688,252.9844 L800.9688,255.7031 Q800.3438,255.125 799.75,254.8594 Q799.1563,254.5781 798.5313,254.5781 Q797.1875,254.5781 796.5,255.6563 Q795.8125,256.7188 795.8125,258.8125 Q795.8125,260.9063 796.5,261.9844 Q797.1875,263.0469 798.5313,263.0469 Q799.1563,263.0469 799.75,262.7813 Q800.3438,262.5 800.9688,261.9219 L800.9688,264.6406 Z " fill="#000000"/>
      <text fill="#000000" font-family="sans-serif" font-size="14" lengthAdjust="spacing" textLength="64.9318" x="812" y="264.432">::std::map</text>
      <rect fill="#FFFFFF" height="18.3441" style="stroke:#181818;stroke-width:1;stroke-dasharray:2.0,2.0;" width="117.7048" x="884.9318" y="240"/>
      <text fill="#000000" font-family="sans-serif" font-size="12" font-style="italic" lengthAdjust="spacing" textLength="115.7048" x="885.9318" y="253.8281">_Key,_Tp,_Cmp2,_Alloc</text>
      <line style="stroke:#181818;stroke-width:0.5;" x1="784" x2="998.6366" y1="275" y2="275"/>
      <line style="stroke:#181818;stroke-width:0.5;" x1="784" x2="998.6366" y1="283" y2="283"/>
    </g>
    <g class="entity" data-entity="C_0013400562882191063364" data-source-line="5" data-uid="ent0003" id="entity_C_0013400562882191063364">
      <rect fill="#F1F1F1" height="48" rx="2.5" ry="2.5" style="stroke:#181818;stroke-width:0.5;" width="434.696" x="7" y="243"/>
      <ellipse cx="22" cy="259" fill="#ADD1B2" rx="11" ry="11" style="stroke:#181818;stroke-width:1;"/>
      <path d="M24.9688,264.6406 Q24.3906,264.9375 23.75,265.0781 Q23.1094,265.2344 22.4063,265.2344 Q19.9063,265.2344 18.5781,263.5938 Q17.2656,261.9375 17.2656,258.8125 Q17.2656,255.6875 18.5781,254.0313 Q19.9063,252.375 22.4063,252.375 Q23.1094,252.375 23.75,252.5313 Q24.4063,252.6875 24.9688,252.9844 L24.9688,255.7031 Q24.3438,255.125 23.75,254.8594 Q23.1563,254.5781 22.5313,254.5781 Q21.1875,254.5781 20.5,255.6563 Q19.8125,256.7188 19.8125,258.8125 Q19.8125,260.9063 20.5,261.9844 Q21.1875,263.0469 22.5313,263.0469 Q23.1563,263.0469 23.75,262.7813 Q24.3438,262.5 24.9688,261.9219 L24.9688,264.6406 Z " fill="#000000"/>
      <text fill="#000000" font-family="sans-serif" font-size="14" lengthAdjust="spacing" textLength="73.7937" x="36" y="264.432">::std::string</text>
      <rect fill="#FFFFFF" height="18.3441" style="stroke:#181818;stroke-width:1;stroke-dasharray:2.0,2.0;" width="326.9023" x="117.7937" y="240"/>
      <text fill="#000000" font-family="sans-serif" font-size="12" font-style="italic" lengthAdjust="spacing" textLength="324.9023" x="118.7937" y="253.8281">_CharT,_Traits=char_traits&lt;_CharT&gt;,_Alloc=allocator&lt;_CharT&gt;</text>
      <line style="stroke:#181818;stroke-width:0.5;" x1="8" x2="440.696" y1="275" y2="275"/>
      <line style="stroke:#181818;stroke-width:0.5;" x1="8" x2="440.696" y1="283" y2="283"/>
    </g>
    <g class="entity" data-entity="C_0012921007255687187864" data-source-line="9" data-uid="ent0004" id="entity_C_0012921007255687187864">
      <rect fill="#F1F1F1" height="48" rx="2.5" ry="2.5" style="stroke:#181818;stroke-width:0.5;" width="271.1368" x="477" y="243"/>
      <ellipse cx="492" cy="259" fill="#ADD1B2" rx="11" ry="11" style="stroke:#181818;stroke-width:1;"/>
      <path d="M494.9688,264.6406 Q494.3906,264.9375 493.75,265.0781 Q493.1094,265.2344 492.4063,265.2344 Q489.9063,265.2344 488.5781,263.5938 Q487.2656,261.9375 487.2656,258.8125 Q487.2656,255.6875 488.5781,254.0313 Q489.9063,252.375 492.4063,252.375 Q493.1094,252.375 493.75,252.5313 Q494.4063,252.6875 494.9688,252.9844 L494.9688,255.7031 Q494.3438,255.125 493.75,254.8594 Q493.1563,254.5781 492.5313,254.5781 Q491.1875,254.5781 490.5,255.6563 Q489.8125,256.7188 489.8125,258.8125 Q489.8125,260.9063 490.5,261.9844 Q491.1875,263.0469 492.5313,263.0469 Q493.1563,263.0469 493.75,262.7813 Q494.3438,262.5 494.9688,261.9219 L494.9688,264.6406 Z " fill="#000000"/>
      <text fill="#000000" font-family="sans-serif" font-size="14" lengthAdjust="spacing" textLength="76.4117" x="506" y="264.432">::std::vector</text>
      <rect fill="#FFFFFF" height="18.3441" style="stroke:#181818;stroke-width:1;stroke-dasharray:2.0,2.0;" width="160.7251" x="590.4117" y="240"/>
      <text fill="#000000" font-family="sans-serif" font-size="12" font-style="italic" lengthAdjust="spacing" textLength="158.7251" x="591.4117" y="253.8281">_Tp,_Alloc=std::allocator&lt;_Tp&gt;</text>
      <line style="stroke:#181818;stroke-width:0.5;" x1="478" x2="747.1368" y1="275" y2="275"/>
      <line style="stroke:#181818;stroke-width:0.5;" x1="478" x2="747.1368" y1="283" y2="283"/>
    </g>
    <g class="entity" data-entity="C_0004868114819844418214" data-source-line="13" data-uid="ent0005" id="entity_C_0004868114819844418214">
      <rect fill="#F1F1F1" height="48" rx="2.5" ry="2.5" style="stroke:#181818;stroke-width:0.5;" width="105.7937" x="280.5" y="134"/>
      <ellipse cx="295.5" cy="150" fill="#ADD1B2" rx="11" ry="11" style="stroke:#181818;stroke-width:1;"/>
      <path d="M298.4688,155.6406 Q297.8906,155.9375 297.25,156.0781 Q296.6094,156.2344 295.9063,156.2344 Q293.4063,156.2344 292.0781,154.5938 Q290.7656,152.9375 290.7656,149.8125 Q290.7656,146.6875 292.0781,145.0313 Q293.4063,143.375 295.9063,143.375 Q296.6094,143.375 297.25,143.5313 Q297.9063,143.6875 298.4688,143.9844 L298.4688,146.7031 Q297.8438,146.125 297.25,145.8594 Q296.6563,145.5781 296.0313,145.5781 Q294.6875,145.5781 294,146.6563 Q293.3125,147.7188 293.3125,149.8125 Q293.3125,151.9063 294,152.9844 Q294.6875,154.0469 296.0313,154.0469 Q296.6563,154.0469 297.25,153.7813 Q297.8438,153.5 298.4688,152.9219 L298.4688,155.6406 Z " fill="#000000"/>
      <text fill="#000000" font-family="sans-serif" font-size="14" lengthAdjust="spacing" textLength="73.7937" x="309.5" y="155.432">::std::string</text>
      <line style="stroke:#181818;stroke-width:0.5;" x1="281.5" x2="385.2937" y1="166" y2="166"/>
      <line style="stroke:#181818;stroke-width:0.5;" x1="281.5" x2="385.2937" y1="174" y2="174"/>
    </g>
    <g class="entity" data-entity="C_0017562627866016277793" data-source-line="17" data-uid="ent0006" id="entity_C_0017562627866016277793">
      <rect fill="#F1F1F1" height="48" rx="2.5" ry="2.5" style="stroke:#181818;stroke-width:0.5;" width="165.6081" x="529.5" y="134"/>
      <ellipse cx="544.5" cy="150" fill="#ADD1B2" rx="11" ry="11" style="stroke:#181818;stroke-width:1;"/>
      <path d="M547.4688,155.6406 Q546.8906,155.9375 546.25,156.0781 Q545.6094,156.2344 544.9063,156.2344 Q542.4063,156.2344 541.0781,154.5938 Q539.7656,152.9375 539.7656,149.8125 Q539.7656,146.6875 541.0781,145.0313 Q542.4063,143.375 544.9063,143.375 Q545.6094,143.375 546.25,143.5313 Q546.9063,143.6875 547.4688,143.9844 L547.4688,146.7031 Q546.8438,146.125 546.25,145.8594 Q545.6563,145.5781 545.0313,145.5781 Q543.6875,145.5781 543,146.6563 Q542.3125,147.7188 542.3125,149.8125 Q542.3125,151.9063 543,152.9844 Q543.6875,154.0469 545.0313,154.0469 Q545.6563,154.0469 546.25,153.7813 Q546.8438,153.5 547.4688,152.9219 L547.4688,155.6406 Z " fill="#000000"/>
      <text fill="#000000" font-family="sans-serif" font-size="14" lengthAdjust="spacing" textLength="76.4117" x="558.5" y="155.432">::std::vector</text>
      <rect fill="#FFFFFF" height="18.3441" style="stroke:#181818;stroke-width:1;stroke-dasharray:2.0,2.0;" width="55.1964" x="642.9117" y="131"/>
      <text fill="#000000" font-family="sans-serif" font-size="12" font-style="italic" lengthAdjust="spacing" textLength="53.1964" x="643.9117" y="144.8281">std::string</text>
      <line style="stroke:#181818;stroke-width:0.5;" x1="530.5" x2="694.1081" y1="166" y2="166"/>
      <line style="stroke:#181818;stroke-width:0.5;" x1="530.5" x2="694.1081" y1="174" y2="174"/>
    </g>
    <g class="entity" data-entity="C_0012983374471803736153" data-source-line="21" data-uid="ent0007" id="entity_C_0012983374471803736153">
      <rect fill="#F1F1F1" height="48" rx="2.5" ry="2.5" style="stroke:#181818;stroke-width:0.5;" width="210.3965" x="758.5" y="134"/>
      <ellipse cx="773.5" cy="150" fill="#ADD1B2" rx="11" ry="11" style="stroke:#181818;stroke-width:1;"/>
      <path d="M776.4688,155.6406 Q775.8906,155.9375 775.25,156.0781 Q774.6094,156.2344 773.9063,156.2344 Q771.4063,156.2344 770.0781,154.5938 Q768.7656,152.9375 768.7656,149.8125 Q768.7656,146.6875 770.0781,145.0313 Q771.4063,143.375 773.9063,143.375 Q774.6094,143.375 775.25,143.5313 Q775.9063,143.6875 776.4688,143.9844 L776.4688,146.7031 Q775.8438,146.125 775.25,145.8594 Q774.6563,145.5781 774.0313,145.5781 Q772.6875,145.5781 772,146.6563 Q771.3125,147.7188 771.3125,149.8125 Q771.3125,151.9063 772,152.9844 Q772.6875,154.0469 774.0313,154.0469 Q774.6563,154.0469 775.25,153.7813 Q775.8438,153.5 776.4688,152.9219 L776.4688,155.6406 Z " fill="#000000"/>
      <text fill="#000000" font-family="sans-serif" font-size="14" lengthAdjust="spacing" textLength="64.9318" x="787.5" y="155.432">::std::map</text>
      <rect fill="#FFFFFF" height="18.3441" style="stroke:#181818;stroke-width:1;stroke-dasharray:2.0,2.0;" width="111.4647" x="860.4318" y="131"/>
      <text fill="#000000" font-family="sans-serif" font-size="12" font-style="italic" lengthAdjust="spacing" textLength="109.4647" x="861.4318" y="144.8281">std::string,std::string</text>
      <line style="stroke:#181818;stroke-width:0.5;" x1="759.5" x2="967.8965" y1="166" y2="166"/>
      <line style="stroke:#181818;stroke-width:0.5;" x1="759.5" x2="967.8965" y1="174" y2="174"/>
    </g>
    <g class="entity" data-entity="C_0000739679837401653668" data-source-line="25" data-uid="ent0008" id="entity_C_0000739679837401653668">
      <rect fill="#F1F1F1" height="48" rx="2.5" ry="2.5" style="stroke:#181818;stroke-width:0.5;" width="40.946" x="592" y="7"/>
      <ellipse cx="607" cy="23" fill="#ADD1B2" rx="11" ry="11" style="stroke:#181818;stroke-width:1;"/>
      <path d="M609.9688,28.6406 Q609.3906,28.9375 608.75,29.0781 Q608.1094,29.2344 607.4063,29.2344 Q604.9063,29.2344 603.5781,27.5938 Q602.2656,25.9375 602.2656,22.8125 Q602.2656,19.6875 603.5781,18.0313 Q604.9063,16.375 607.4063,16.375 Q608.1094,16.375 608.75,16.5313 Q609.4063,16.6875 609.9688,16.9844 L609.9688,19.7031 Q609.3438,19.125 608.75,18.8594 Q608.1563,18.5781 607.5313,18.5781 Q606.1875,18.5781 605.5,19.6563 Q604.8125,20.7188 604.8125,22.8125 Q604.8125,24.9063 605.5,25.9844 Q606.1875,27.0469 607.5313,27.0469 Q608.1563,27.0469 608.75,26.7813 Q609.3438,26.5 609.9688,25.9219 L609.9688,28.6406 Z " fill="#000000"/>
      <text fill="#000000" font-family="sans-serif" font-size="14" lengthAdjust="spacing" textLength="8.946" x="621" y="28.432">A</text>
      <line style="stroke:#181818;stroke-width:0.5;" x1="593" x2="631.946" y1="39" y2="39"/>
      <line style="stroke:#181818;stroke-width:0.5;" x1="593" x2="631.946" y1="47" y2="47"/>
    </g>
    <g class="link" data-entity-1="C_0004868114819844418214" data-entity-2="C_0013400562882191063364" data-source-line="29" data-uid="lnk9" id="link_C_0004868114819844418214_C_0013400562882191063364">
      <path codeLine="29" d="M309.85,182.22 C291.57,200.16 279.2234,212.2786 260.9534,230.2186" fill="none" id="C_0004868114819844418214-to-C_0013400562882191063364" style="stroke:#181818;stroke-width:1;stroke-dasharray:7.0,7.0;"/>
      <polygon fill="none" points="248.11,242.83,265.1572,234.4997,256.7496,225.9375,248.11,242.83" style="stroke:#181818;stroke-width:1;"/>
    </g>
    <g class="link" data-entity-1="C_0017562627866016277793" data-entity-2="C_0012921007255687187864" data-source-line="30" data-uid="lnk10" id="link_C_0017562627866016277793_C_0012921007255687187864">
      <path codeLine="30" d="M612.5,182.22 C612.5,200.16 612.5,206.89 612.5,224.83" fill="none" id="C_0017562627866016277793-to-C_0012921007255687187864" style="stroke:#181818;stroke-width:1;stroke-dasharray:7.0,7.0;"/>
      <polygon fill="none" points="612.5,242.83,618.5,224.83,606.5,224.83,612.5,242.83" style="stroke:#181818;stroke-width:1;"/>
    </g>
    <g class="link" data-entity-1="C_0012983374471803736153" data-entity-2="C_0000195318498192314705" data-source-line="31" data-uid="lnk11" id="link_C_0012983374471803736153_C_0000195318498192314705">
      <path codeLine="31" d="M869.58,182.22 C874.27,200.16 876.1782,207.4776 880.8782,225.4176" fill="none" id="C_0012983374471803736153-to-C_0000195318498192314705" style="stroke:#181818;stroke-width:1;stroke-dasharray:7.0,7.0;"/>
      <polygon fill="none" points="885.44,242.83,886.6824,223.8971,875.0741,226.9382,885.44,242.83" style="stroke:#181818;stroke-width:1;"/>
    </g>
    <g class="link" data-entity-1="C_0000739679837401653668" data-entity-2="C_0017562627866016277793" data-source-line="32" data-uid="lnk12" id="link_C_0000739679837401653668_C_0017562627866016277793">
      <path codeLine="32" d="M612.5,67.22 C612.5,89.67 612.5,111.5 612.5,133.91" fill="none" id="C_0000739679837401653668-backto-C_0017562627866016277793" style="stroke:#181818;stroke-width:1;"/>
      <polygon fill="none" points="612.5,55.22,608.5,61.22,612.5,67.22,616.5,61.22,612.5,55.22" style="stroke:#181818;stroke-width:1;"/>
      <ellipse cx="618.5" cy="95.353" fill="none" rx="3" ry="3" style="stroke:#038048;stroke-width:1;"/>
      <text fill="#000000" font-family="sans-serif" font-size="13" lengthAdjust="spacing" textLength="13.52" x="625.5" y="99.897">as</text>
    </g>
    <g class="link" data-entity-1="C_0000739679837401653668" data-entity-2="C_0004868114819844418214" data-source-line="33" data-uid="lnk13" id="link_C_0000739679837401653668_C_0004868114819844418214">
      <path codeLine="33" d="M581.0295,46.0977 C537.8095,65.4677 447.19,106.06 385.02,133.92" fill="none" id="C_0000739679837401653668-backto-C_0004868114819844418214" style="stroke:#181818;stroke-width:1;"/>
      <polygon fill="none" points="591.98,41.19,584.8688,39.9937,581.0295,46.0977,588.1406,47.294,591.98,41.19" style="stroke:#181818;stroke-width:1;"/>
      <text fill="#000000" font-family="sans-serif" font-size="13" lengthAdjust="spacing" textLength="13.663" x="491.5" y="99.897">+s</text>
    </g>
    <g class="link" data-entity-1="C_0000739679837401653668" data-entity-2="C_0012983374471803736153" data-source-line="34" data-uid="lnk14" id="link_C_0000739679837401653668_C_0012983374471803736153">
      <path codeLine="34" d="M643.7823,47.5783 C683.7123,67.4583 761.94,106.42 816.91,133.8" fill="none" id="C_0000739679837401653668-backto-C_0012983374471803736153" style="stroke:#181818;stroke-width:1;"/>
      <polygon fill="none" points="633.04,42.23,636.6284,48.4849,643.7823,47.5783,640.1939,41.3234,633.04,42.23" style="stroke:#181818;stroke-width:1;"/>
      <ellipse cx="758.5" cy="95.353" fill="none" rx="3" ry="3" style="stroke:#038048;stroke-width:1;"/>
      <text fill="#000000" font-family="sans-serif" font-size="13" lengthAdjust="spacing" textLength="18.382" x="765.5" y="99.897">ms</text>
    </g>
  </g>
</svg>
