<?xml version="1.0" encoding="UTF-8" standalone="no"?>
<!-- Created with Inkscape (http://www.inkscape.org/) -->

<svg
   width="106.08731mm"
   height="17.94924mm"
   viewBox="0 0 106.08731 17.94924"
   version="1.1"
   id="svg5"
   xmlns="http://www.w3.org/2000/svg"
   xmlns:svg="http://www.w3.org/2000/svg">
  <defs
     id="defs2">
    <filter
       id="selectable_hidder_filter"
       width="1"
       height="1"
       x="0"
       y="0"
       style="color-interpolation-filters:sRGB">
      <feComposite
         id="boolops_hidder_primitive"
         result="composite1"
         operator="arithmetic"
         in2="SourceGraphic"
         in="BackgroundImage"
         k1="0"
         k2="0"
         k3="0"
         k4="0" />
    </filter>
  </defs>
  <g
     id="layer1"
     transform="translate(-3.9597109,-151.39979)">
    <path
       id="path203-2"
       style="fill:#fefece;fill-opacity:1;fill-rule:nonzero;stroke:#fefece;stroke-width:0.566929;stroke-miterlimit:4;stroke-dasharray:none;stroke-opacity:1"
       d="m 69.004603,577.01478 -0.715197,22.65956 1.313526,23.47078 3.652372,0.58579 5.257321,0.11177 -0.275368,-23.69362 -0.305249,-22.84837 -4.252125,-0.28957 z m 333.236057,0.64499 -0.16888,22.27478 0.38199,23.06726 4.25131,-0.21721 4.39738,-0.19013 -0.0774,-22.74742 -0.16557,-22.49934 -4.04931,0.008 z m -90.30162,12.32891 -3.99503,-0.71955 -4.21423,0.41753 -0.18885,13.22291 -1.38351,9.9976 -6.60085,1.02746 -6.98152,-0.31511 -0.66786,-10.79131 -0.96951,-13.65372 -4.07717,-0.0734 -3.69653,0.49297 -0.51381,16.55638 -0.76897,16.5793 17.62449,0.22 16.4931,0.50528 -0.0861,-17.36615 z m -69.70906,-0.75615 -0.9541,4.30592 1.40581,4.50251 9.95654,-0.0886 10.17263,-0.43489 -0.29476,-4.20481 0.0624,-3.51093 -10.45522,-0.30185 z m -222.089821,0.10449 -0.995776,16.72936 1.155102,17.30889 16.312543,0.54597 16.193821,-0.14606 1.400068,-4.97095 -0.771136,-4.48839 -13.723211,-0.19415 -8.786982,-0.6238 -1.491855,-7.14923 1.024231,-6.61405 9.38761,-1.6836 14.194954,-0.55305 0.231376,-3.82635 -0.467136,-5.24932 -17.799606,0.10078 z m 73.923828,0.21152 -0.591787,4.24766 0.06483,4.32805 h 12.32422 l 10.66625,1.37751 1.88392,0.46341 -0.11827,2.17148 -12.09452,-0.27809 H 93.874411 l -0.400954,10.55852 0.07884,11.0179 17.370504,0.48659 15.97147,-0.84866 0.18676,-16.93607 -0.16128,-16.99601 -16.70595,0.1178 z m 49.553463,-0.0875 -1.66044,16.36516 0.45131,17.35972 5.31126,0.74031 4.29179,-0.37103 0.29224,-13.89176 1.70942,-10.30949 5.87705,-1.00677 5.61269,1.43318 1.58686,9.70193 0.75516,13.75168 4.26445,0.30036 4.18321,-0.40056 0.33127,-17.03224 -0.78516,-16.82349 -16.10912,-10e-4 z m 48.32104,0.0367 -0.0406,16.53741 0.62526,16.89752 13.55889,0.38293 8.93223,1.27691 1.96226,0.55472 -0.14644,1.57613 -10.94869,0.4472 -13.43048,0.38406 -0.17527,4.42247 0.73218,3.1015 16.18482,0.38731 16.97543,-0.0272 -0.52585,-23.14639 0.13579,-22.23551 -17.26666,-1.06561 z m 136.46941,-0.0318 -0.43033,16.70294 0.30269,16.15525 4.15956,0.90693 3.65486,-0.79816 0.15014,-13.10092 1.8072,-9.7089 6.97971,-1.59205 6.07535,1.48441 2.16962,9.94905 -0.3873,12.99838 4.51072,0.69778 4.09383,-0.7019 -0.18797,-13.19875 3.20081,-9.5598 5.34229,-1.57823 6.12481,1.25919 2.88161,9.95891 -1.33525,13.13477 4.43331,0.62767 3.87071,-0.73309 0.22504,-16.44254 0.51663,-16.66567 -29.29475,0.36287 z m -125.47431,10.5792 h 12.05664 v 11.875 h -12.05664 z m -100.17316,10.63549 8.06466,-0.0482 6.09204,1.42937 1.00142,0.31658 0.52968,2.26352 -8.13323,-0.46717 -5.05466,-1.16632 -1.51546,-0.54826 z"
       transform="scale(0.26458333)" />
    <path
       style="display:inline;fill:#a80036;fill-opacity:1;fill-rule:nonzero;stroke:none;stroke-width:0.2;stroke-miterlimit:4;stroke-dasharray:none;stroke-opacity:1"
       d="m 49.59504,160.96703 v -5.207 a 1.0583333,1.0583333 135 0 1 1.058333,-1.05833 h 3.598334 5.714999 a 1.0583333,1.0583333 45 0 1 1.058333,1.05833 v 5.207 7.32367 a 1.0583333,1.0583333 135 0 1 -1.058333,1.05833 l -3.598333,0 h -5.715 A 1.0583333,1.0583333 45 0 1 49.59504,168.2907 v -5.20701 z m 9.821333,-0.0423 v -3.64067 A 1.0583333,1.0583333 45 0 0 58.35804,156.22573 H 56.368373 52.26204 a 1.0583333,1.0583333 135 0 0 -1.058333,1.05833 v 2.032 l 0,4.14867 a 1.0583333,1.0583333 45 0 0 1.058333,1.05833 h 1.143 3.259667 a 0.9399511,0.9399511 37.23472 0 1 1.058333,0.80433 v 0.80434 H 55.521706 52.26204 a 0.9399511,0.9399511 142.76528 0 0 -1.058333,0.80433 v 0.80433 h 3.048 4.106333 a 1.0583333,1.0583333 135 0 0 1.058333,-1.05833 l 0,-3.64067 z m -6.519333,-1.60867 v -0.33867 a 1.0583333,1.0583333 135 0 1 1.058333,-1.05833 h 0.296334 2.413 a 1.0583333,1.0583333 45 0 1 1.058333,1.05833 v 0.33867 2.45534 a 1.0583333,1.0583333 135 0 1 -1.058333,1.05833 h -0.296334 -2.413 A 1.0583333,1.0583333 45 0 1 52.89704,161.7714 v -0.33868 z m 3.281299,0.23585 -0.84711,-0.006 -0.836313,-2.6e-4 0.01081,0.82579 v 0.84973 h 0.849732 l 0.842493,-0.003 c -0.01699,-0.82247 -0.01699,-0.82247 -0.01699,-0.82247 l -2.2e-5,-1.1e-4 z M 3.9597109,159.35846 v -3.59834 a 1.0583333,1.0583333 135 0 1 1.0583333,-1.05833 h 3.5983329 5.7149999 a 1.0583333,1.0583333 45 0 1 1.058333,1.05833 v 0.29634 2.413 a 1.0583333,1.0583333 135 0 1 -1.058333,1.05833 h -1.143 -3.2596665 a 0.95835863,0.95835863 141.34041 0 0 -1.0583333,0.84666 v 0.84667 h 2.2013338 3.259666 a 1.0583333,1.0583333 45 0 1 1.058333,1.05833 v 0.33867 2.45534 a 1.0583333,1.0583333 135 0 1 -1.058333,1.05833 H 10.733044 5.0180442 a 1.0583333,1.0583333 45 0 1 -1.0583333,-1.05833 l 0,-3.59834 z m 9.8213331,3.47133 H 11.579709 8.3200439 a 1.0583333,1.0583333 45 0 1 -1.0583333,-1.05833 v -0.33868 l 0,-2.45533 a 1.0583333,1.0583333 135 0 1 1.0583333,-1.05833 h 1.1429988 3.2596683 a 0.95836305,0.95836305 141.34008 0 0 1.058333,-0.84667 v -0.84666 h -3.048 -4.1063332 a 1.0583333,1.0583333 135 0 0 -1.0583333,1.05833 v 2.032 4.14867 a 1.0583333,1.0583333 45 0 0 1.0583333,1.05833 h 1.9896663 4.1063339 a 0.95836305,0.95836305 141.34008 0 0 1.058333,-0.84667 z m 3.217333,-5.12233 v -5.24934 a 1.0583333,1.0583333 135 0 1 1.058333,-1.05833 h 0.338667 2.455333 a 1.0583333,1.0583333 45 0 1 1.058333,1.05833 v 5.24934 7.366 a 1.0583333,1.0583333 135 0 1 -1.058333,1.05833 H 20.512043 18.05671 a 1.0583333,1.0583333 45 0 1 -1.058333,-1.05833 l 0,-5.24934 z m 3.301999,0 v -3.64068 a 0.95836128,0.95836128 51.340213 0 0 -0.846666,-1.05833 h -0.846667 v 4.69901 5.75733 a 0.95836172,0.95836172 51.34018 0 0 0.846667,1.05833 h 0.846666 l 0,-4.699 z m 3.217333,1.651 v -3.59834 a 1.0583333,1.0583333 135 0 1 1.058333,-1.05833 h 3.598334 5.714999 a 1.0583333,1.0583333 45 0 1 1.058333,1.05833 v 3.59834 5.715 a 1.0583333,1.0583333 135 0 1 -1.058333,1.05833 h -3.598333 -5.715 a 1.0583333,1.0583333 45 0 1 -1.058333,-1.05833 l 0,-3.59834 z m 9.821333,-0.0423 v -2.032 a 1.0583333,1.0583333 45 0 0 -1.058333,-1.05833 h -1.989667 -4.106333 a 0.95835863,0.95835863 141.34041 0 0 -1.058333,0.84666 v 0.84667 h 2.201333 3.259667 a 0.9399511,0.9399511 37.23472 0 1 1.058333,0.80433 v 0.80434 h -2.201334 -3.259666 a 1.0583333,1.0583333 135 0 0 -1.058333,1.05833 v 0.381 2.49767 a 1.0583333,1.0583333 45 0 0 1.058333,1.05833 h 1.989667 4.106333 a 1.0583333,1.0583333 135 0 0 1.058333,-1.05833 v -2.03201 z m -6.519333,1.905 h 1.354667 2.413 a 0.9399511,0.9399511 37.23472 0 1 1.058333,0.80433 v 0.80434 h -1.354667 -2.413 a 0.93995537,0.93995537 37.235064 0 1 -1.058333,-0.80434 z m 9.736666,-1.86266 v -3.59834 a 1.0583333,1.0583333 135 0 1 1.058333,-1.05833 h 3.598333 5.715 a 1.0583333,1.0583333 45 0 1 1.058333,1.05833 v 3.59834 5.715 a 1.0583333,1.0583333 135 0 1 -1.058333,1.05833 h -0.29534 -2.412005 a 1.0655058,1.0655058 44.806505 0 1 -1.065481,-1.05831 l -0.0079,-1.16422 -0.02216,-3.28083 a 0.98358755,0.98358755 52.433108 0 0 -0.832648,-1.08251 l -0.8255,-0.0242 v 2.24673 3.30507 a 1.0583333,1.0583333 135 0 1 -1.058333,1.05833 H 40.070043 37.61471 a 1.0583337,1.0583337 44.99999 0 1 -1.058333,-1.05833 l -2e-6,-3.5984 z m 3.302,0.80433 v -1.18534 a 1.0583333,1.0583333 135 0 1 1.058333,-1.05833 l 0.296333,0 h 2.413 a 1.0583333,1.0583333 45 0 1 1.058333,1.05833 v 1.18534 3.302 a 0.95836172,0.95836172 51.34018 0 0 0.846667,1.05833 h 0.846666 v -3.09034 -4.14866 a 1.0583333,1.0583333 45 0 0 -1.058333,-1.05833 h -1.989667 -4.106333 a 1.0583333,1.0583333 135 0 0 -1.058333,1.05833 v 2.032 4.14867 a 0.95836172,0.95836172 51.34018 0 0 0.846667,1.05833 h 0.846667 l 0,-2.24367 z m 32.596663,-0.80433 v -3.59834 a 1.0583333,1.0583333 135 0 1 1.058333,-1.05833 h 0.338667 2.455333 a 1.0583333,1.0583333 45 0 1 1.058333,1.05833 v 1.143 3.25967 a 0.95836172,0.95836172 51.34018 0 0 0.846667,1.05833 h 0.846667 v -2.20134 -3.25966 a 1.0583333,1.0583333 135 0 1 1.058333,-1.05833 h 0.296333 2.413 a 1.0583333,1.0583333 45 0 1 1.058333,1.05833 l 0,3.59834 v 5.715 a 1.0583333,1.0583333 135 0 1 -1.058333,1.05833 h -3.598333 -5.715 a 1.0583333,1.0583333 45 0 1 -1.058333,-1.05833 l 0,-3.59834 z m 9.821333,-0.0454 v -2.03507 a 0.92223546,0.92223546 51.401278 0 0 -0.8255,-1.03413 l -0.8255,0.0242 -0.01501,2.22252 -0.02216,3.28084 a 1.0655058,1.0655058 135.1935 0 1 -1.065481,1.05831 h -0.295339 -2.412006 a 1.0583333,1.0583333 45 0 1 -1.058333,-1.05833 v -1.18534 -3.302 a 0.95836261,0.95836261 51.340114 0 0 -0.846669,-1.05833 h -0.846666 v 3.09033 4.14867 a 1.0583333,1.0583333 45 0 0 1.058333,1.05833 h 1.989667 4.106333 a 1.0583333,1.0583333 135 0 0 1.058333,-1.05833 l 0,-2.03501 z m 3.217333,0.0454 v -3.59834 a 1.0583333,1.0583333 135 0 1 1.058333,-1.05833 h 6.900333 9.01699 a 1.0583333,1.0583333 45 0 1 1.05833,1.05833 v 3.59834 5.715 a 1.0583333,1.0583333 135 0 1 -1.05833,1.05833 h -0.33867 -2.455321 a 1.0583333,1.0583333 45 0 1 -1.058333,-1.05833 l 0,-1.18841 0,-3.30506 a 0.92223546,0.92223546 51.401278 0 0 -0.8255,-1.03413 l -0.8255,0.0242 -0.01501,2.22252 a 699198.8,699198.8 90.387079 0 1 -0.0143,2.11662 l -0.0079,1.16422 a 1.0655091,1.0655091 135.19358 0 1 -1.065484,1.05831 h -0.295335 -2.412009 a 1.0583333,1.0583333 45 0 1 -1.058333,-1.05833 v -1.18534 -3.302 a 0.95836128,0.95836128 51.340213 0 0 -0.846666,-1.05833 h -0.846667 v 2.24367 3.302 a 1.0583333,1.0583333 135 0 1 -1.058333,1.05833 l -0.338667,0 H 86.55203 a 1.058332,1.058332 45.000035 0 1 -1.058332,-1.05833 l 5e-6,-3.59828 a 1728089,1728089 90.000035 0 0 10e-7,-2.11666 z m 3.301999,0.80433 v -1.18534 a 1.0583333,1.0583333 135 0 1 1.058333,-1.05833 h 0.338668 2.455333 a 1.0583333,1.0583333 45 0 1 1.058333,1.05833 v 1.18841 3.30506 a 0.92223546,0.92223546 51.401278 0 0 0.8255,1.03413 l 0.825499,-0.0242 0.01501,-2.22253 a 689814.76,689814.76 90.387079 0 1 0.0143,-2.11662 l 0.0079,-1.16421 a 1.0655091,1.0655091 135.19358 0 1 1.065484,-1.05831 h 0.295335 2.41201 a 1.0583333,1.0583333 45 0 1 1.058333,1.05833 v 1.18534 3.302 a 0.95835863,0.95835863 51.340411 0 0 0.84666,1.05833 h 0.84666 v -3.09034 -4.14866 a 1.0583333,1.0583333 45 0 0 -1.05833,-1.05833 l -5.291657,0 H 88.16071 a 1.0583333,1.0583333 135 0 0 -1.058333,1.05833 l 0,2.032 v 4.14867 a 0.95836172,0.95836172 51.34018 0 0 0.846667,1.05833 h 0.846666 l -5e-6,-2.24373 a 998480.02,998480.02 89.999939 0 1 -2e-6,-2.11666 z m 16.340657,-2.45533 v -5.24934 a 1.0583333,1.0583333 135 0 1 1.05833,-1.05833 h 0.33867 2.45533 a 1.0583333,1.0583333 45 0 1 1.05833,1.05833 v 5.24934 7.366 a 1.0583333,1.0583333 135 0 1 -1.05833,1.05833 h -0.33867 -2.45533 a 1.0583333,1.0583333 45 0 1 -1.05833,-1.05833 v -5.24934 z m 3.302,0 0,-3.64068 a 0.95836305,0.95836305 51.340081 0 0 -0.84667,-1.05833 h -0.84667 v 4.69901 5.75733 a 0.95836305,0.95836305 51.340081 0 0 0.84667,1.05833 h 0.84667 v -4.699 z m -45.804654,-1.651 v -0.29634 a 1.0583333,1.0583333 135 0 1 1.058333,-1.05833 h 1.989667 4.106333 a 1.0583333,1.0583333 45 0 1 1.058333,1.05833 v 0.29634 2.413 a 1.0583333,1.0583333 135 0 1 -1.058333,1.05833 h -1.989667 -4.106333 a 1.0583333,1.0583333 45 0 1 -1.058333,-1.05833 v -0.29634 z m 6.561668,0.21163 -1.41821,-0.0129 a 52423.556,52423.556 0.51938422 0 0 -2.11658,-0.0192 l -0.35992,-0.003 a 0.95039441,0.95039441 141.61405 0 0 -1.05829,0.83837 v 0.84795 h 1.4424 2.500732 a 0.92218749,0.92218749 141.40054 0 0 1.034093,-0.82549 l 5e-6,0 z"
       id="path203" />
  </g>
</svg>
